<svg width="318" height="287" viewBox="0 0 318 287" fill="red" xmlns="http://www.w3.org/2000/svg">
<path d="M116.421 29.1269C122.214 23.5663 128.8 17.9395 134.592 12.3127C138.3 8.70497 141.973 5.09721 145.581 1.39015C146.508 0.463383 147.369 0 148.726 0C175.138 0.0661975 201.551 0.0661975 227.964 0.0661975C228.593 0.0661975 230.579 0.0661975 230.579 0.0661975C227.203 3.50847 224.29 6.68595 221.311 9.66484C215.122 15.8874 208.899 22.0769 202.677 28.2994C195.527 35.4488 188.378 42.565 181.229 49.6812C162.064 68.7461 142.867 87.811 123.736 106.909C112.449 118.163 101.229 129.482 89.8429 140.637C87.6915 142.722 87.8901 143.98 89.8429 145.932C99.8388 155.829 109.768 165.825 119.698 175.754C128.403 184.459 137.075 193.164 145.813 201.836C155.312 211.269 164.878 220.669 174.377 230.103C192.615 248.241 210.786 266.445 228.99 284.616C229.354 284.98 229.652 285.444 230.016 285.874C229.156 286.9 228.096 286.47 227.203 286.47C200.79 286.47 174.377 286.47 147.964 286.569C145.35 286.569 143.728 285.576 142.007 283.855C133.964 275.713 116.454 259.031 116.454 259.031C116.454 259.031 116.454 271.741 116.454 277.963C116.454 283.656 113.63 286.503 107.981 286.503C93.6824 286.503 79.3837 286.404 65.0851 286.569C61.8414 286.602 60.8484 285.907 60.8484 282.465C61.0139 257.177 60.9146 231.89 60.9808 206.569C60.9808 204.352 60.4844 202.697 58.7963 201.075C45.4575 187.968 32.218 174.795 18.9785 161.588C12.9877 155.63 7.06297 149.573 1.0059 143.649C-0.351148 142.325 -0.318049 141.563 1.0059 140.273C9.0158 132.594 16.9264 124.815 24.9363 117.136C34.9321 107.538 44.7625 97.7737 55.1224 88.6054C59.6238 84.6335 61.1132 80.5955 61.0139 74.737C60.683 50.9721 60.9146 27.2403 60.8153 3.47537C60.8153 0.695074 61.5766 0 64.2907 0C80.5753 0.132395 96.8599 0.132395 113.144 0C115.726 0 116.487 0.661975 116.454 3.27678C116.289 11.1874 116.388 29.1269 116.388 29.1269H116.421ZM60.7491 93.0737C60.7491 93.0737 25.5321 126.272 11.2334 139.743C9.41298 141.464 9.44608 142.391 11.2334 144.112C26.7236 159.404 60.7822 192.436 60.7822 192.436V93.0406L60.7491 93.0737Z" fill="#E89E3F"/>
<path d="M282.809 286.503C274.435 286.503 266.094 286.437 257.72 286.536C255.668 286.536 254.212 285.874 252.788 284.451C239.449 271.046 226.044 257.674 212.706 244.269C202.644 234.174 192.747 223.946 182.652 213.851C174.741 205.94 166.665 198.195 158.788 190.285C144.125 175.589 129.528 160.761 114.833 146.065C113.277 144.509 113.078 143.582 114.833 141.894C126.318 130.541 137.704 119.122 149.09 107.67C159.45 97.2441 169.677 86.7187 180.07 76.2926C204.696 51.6009 229.387 26.9754 254.013 2.31687C255.602 0.728135 257.19 -3.80464e-05 259.474 0.0330607C275.66 0.132357 291.845 0.0661595 307.997 0.132357C309.089 0.132357 310.579 -0.0331369 311.174 0.959826C311.704 2.54857 311.505 4.10421 310.115 5.49436C300.484 14.9606 290.852 24.4599 281.286 34.0255C275.858 39.4537 270.529 44.9812 265.101 50.4094C259.044 56.4333 252.854 62.358 246.797 68.4151C241.435 73.744 236.239 79.2384 230.877 84.5673C225.151 90.2934 219.259 95.9202 213.533 101.646C207.642 107.538 201.882 113.562 195.991 119.453C188.709 126.735 181.361 134.017 173.947 141.166C172.193 142.821 171.961 143.582 173.881 145.469C184.009 155.366 193.872 165.494 203.901 175.49C212.044 183.599 220.351 191.576 228.494 199.718C236.173 207.397 243.686 215.208 251.365 222.887C257.091 228.613 263.016 234.207 268.742 239.933C274.633 245.824 280.36 251.882 286.251 257.773C293.632 265.154 301.112 272.403 308.527 279.718C309.321 280.479 310.148 281.207 310.843 282.068C311.737 283.226 311.77 284.715 311.174 285.841C310.744 286.668 309.486 286.569 308.56 286.569C299.987 286.569 291.381 286.569 282.809 286.569V286.503Z" fill="#FCD15E"/>
<path d="M316.969 103.698V259.858C315.447 259.427 250.838 194.454 219.328 162.944C213.9 157.516 208.504 152.022 203.01 146.66C200.991 144.707 200.826 143.416 203.043 141.199C239.981 104.393 276.82 67.4876 313.659 30.6156C314.652 29.6226 315.678 28.729 317.068 27.405C317.068 39.6516 317.068 51.3685 317.068 63.1186C317.068 66.3623 317.234 69.4404 316.539 72.5848C315.91 75.5637 315.016 78.5426 313.659 81.2898C312.865 82.8785 311.872 84.4342 310.515 85.6588C302.108 93.1391 294.23 101.281 286.253 109.225C278.508 116.97 270.962 124.881 263.217 132.593C260.668 135.141 257.888 137.458 255.538 140.239C254.446 141.53 254.346 142.324 255.538 143.515C266.692 154.438 277.416 165.791 288.901 176.383C291.483 178.766 293.469 181.745 296.349 183.797C296.944 184.227 297.342 185.121 298.268 184.69C298.996 184.359 298.831 183.565 298.831 182.936C298.831 175.356 298.831 167.744 298.831 160.164C298.831 158.211 297.408 157.285 296.249 156.159C291.682 151.724 287.114 147.289 282.414 143.019C280.891 141.629 280.958 140.768 282.315 139.345C290.126 131.302 297.805 123.16 305.649 115.117C309.224 111.443 312.302 107.239 316.87 103.731L316.969 103.698Z" fill="#FDF69C"/>
</svg>
